<?xml version="1.0" encoding="UTF-8"?>
<svg xmlns="http://www.w3.org/2000/svg" viewBox="0 0 38.22 38.22">
  <path d="M22.08,28.48h-.06c-.47-.03-.86-.35-.98-.8l-3.52-12.89-1.8,6.01c-.14.46-.56.77-1.04.77h-6.75c-.6,0-1.09-.49-1.09-1.09s.49-1.09,1.09-1.09h5.94l2.66-8.88c.14-.46.56-.77,1.04-.77h0c.48,0,.91.33,1.03.8l3.67,13.46,1.59-3.92c.17-.41.56-.68,1.01-.68h5.4c.6,0,1.09.49,1.09,1.09s-.49,1.09-1.09,1.09h-4.67l-2.52,6.23c-.17.41-.57.68-1.01.68h0Z"/>
  <path d="M19.11,38.22C8.57,38.22,0,29.65,0,19.11S8.57,0,19.11,0s19.11,8.57,19.11,19.11-8.57,19.11-19.11,19.11ZM19.11,2.17C9.77,2.17,2.18,9.77,2.18,19.1s7.6,16.93,16.93,16.93,16.93-7.6,16.93-16.93S28.44,2.17,19.11,2.17Z"/>
</svg>
