<?xml version="1.0" encoding="UTF-8"?>
<svg id="Layer_1" xmlns="http://www.w3.org/2000/svg" version="1.1" viewBox="0 0 430.42 41.82">
  <!-- Generator: Adobe Illustrator 30.0.0, SVG Export Plug-In . SVG Version: 2.1.1 Build 123)  -->
  <defs>
    <style>
      .st0 {
        fill: #fff;
      }
    </style>
  </defs>
  <g>
    <path class="st0" d="M22.08,28.48h-.06c-.47-.03-.86-.35-.98-.8l-3.52-12.89-1.8,6.01c-.14.46-.56.77-1.04.77h-6.75c-.6,0-1.09-.49-1.09-1.09s.49-1.09,1.09-1.09h5.94l2.66-8.88c.14-.46.56-.77,1.04-.77h0c.48,0,.91.33,1.03.8l3.67,13.46,1.59-3.92c.17-.41.56-.68,1.01-.68h5.4c.6,0,1.09.49,1.09,1.09s-.49,1.09-1.09,1.09h-4.67l-2.52,6.23c-.17.41-.57.68-1.01.68h0Z"/>
    <path class="st0" d="M19.11,38.22C8.57,38.22,0,29.65,0,19.11S8.57,0,19.11,0s19.11,8.57,19.11,19.11-8.57,19.11-19.11,19.11ZM19.11,2.17C9.77,2.17,2.18,9.77,2.18,19.1s7.6,16.93,16.93,16.93,16.93-7.6,16.93-16.93S28.44,2.17,19.11,2.17Z"/>
  </g>
  <g>
    <path class="st0" d="M65.69,4.96v28.43h-5.82V4.96s5.82,0,5.82,0Z"/>
    <path class="st0" d="M76.44,21.04v12.35h-5.72V12.06h5.4l.09,5.32h-.34c.56-1.78,1.41-3.16,2.55-4.13,1.14-.97,2.61-1.46,4.42-1.46,1.48,0,2.76.32,3.86.96s1.95,1.56,2.56,2.77c.6,1.2.91,2.64.91,4.3v13.57h-5.72v-12.57c0-1.32-.34-2.36-1.02-3.11s-1.62-1.13-2.83-1.13c-.8,0-1.52.17-2.15.52-.63.35-1.12.86-1.47,1.52s-.52,1.47-.52,2.42h-.02Z"/>
    <path class="st0" d="M105.63,12.06v4.37h-12.65v-4.37s12.65,0,12.65,0ZM95.92,6.98h5.72v20.17c0,.67.15,1.17.45,1.5.3.33.8.49,1.5.49.22,0,.52-.03.92-.09.39-.06.69-.11.9-.16l.82,4.29c-.64.19-1.27.32-1.9.4-.63.08-1.23.12-1.8.12-2.14,0-3.77-.52-4.9-1.57-1.13-1.04-1.7-2.54-1.7-4.48V6.98h0Z"/>
    <path class="st0" d="M118.6,33.81c-2.17,0-4.05-.45-5.63-1.34s-2.79-2.16-3.63-3.8c-.85-1.64-1.27-3.59-1.27-5.84s.42-4.13,1.26-5.78c.84-1.65,2.03-2.94,3.57-3.87s3.35-1.39,5.42-1.39c1.4,0,2.7.22,3.91.67s2.27,1.12,3.19,2.01c.92.9,1.63,2.02,2.15,3.37.52,1.35.77,2.94.77,4.77v1.6h-17.92v-3.59h15.11l-2.67.95c0-1.11-.17-2.07-.51-2.89s-.84-1.46-1.51-1.91-1.49-.68-2.47-.68-1.83.23-2.53.69-1.22,1.08-1.57,1.86c-.36.78-.53,1.68-.53,2.68v2.54c0,1.23.21,2.27.62,3.11.41.84.99,1.47,1.74,1.89s1.61.63,2.6.63c.67,0,1.29-.1,1.83-.29.55-.19,1.01-.47,1.4-.85.39-.38.68-.84.89-1.38l5.19.97c-.34,1.17-.94,2.2-1.79,3.08-.85.88-1.92,1.57-3.2,2.05s-2.75.73-4.42.73h0Z"/>
    <path class="st0" d="M141.73,41.82c-1.78,0-3.33-.23-4.66-.68-1.32-.45-2.4-1.07-3.22-1.86-.83-.79-1.4-1.69-1.72-2.69l4.92-1.37c.18.39.46.78.83,1.15s.87.68,1.5.93c.62.24,1.39.36,2.31.36,1.46,0,2.61-.33,3.44-1s1.25-1.71,1.25-3.12v-3.93h-.44c-.25.57-.62,1.13-1.11,1.66s-1.12.97-1.9,1.31-1.75.5-2.91.5c-1.6,0-3.06-.38-4.37-1.12-1.31-.75-2.36-1.9-3.14-3.44-.78-1.54-1.17-3.49-1.17-5.84s.4-4.41,1.19-6.03,1.85-2.83,3.17-3.64c1.32-.81,2.76-1.22,4.34-1.22,1.2,0,2.2.2,3.01.6s1.47.9,1.97,1.51c.5.6.88,1.19,1.14,1.75h.25v-3.59h5.63v21.16c0,1.92-.44,3.52-1.33,4.79-.88,1.27-2.1,2.23-3.65,2.86-1.55.64-3.33.95-5.34.95h0ZM141.83,28.73c.98,0,1.81-.24,2.49-.72.68-.48,1.2-1.18,1.55-2.09.36-.91.53-2,.53-3.27s-.18-2.36-.53-3.3-.88-1.67-1.55-2.19c-.68-.52-1.51-.78-2.49-.78s-1.85.27-2.53.81-1.2,1.28-1.55,2.22-.52,2.02-.52,3.24.17,2.33.52,3.23c.35.91.87,1.61,1.56,2.11s1.53.74,2.52.74Z"/>
    <path class="st0" d="M156.94,33.39V12.06h5.53v3.72h.23c.39-1.32,1.05-2.32,1.97-3,.92-.67,1.98-1.01,3.18-1.01.29,0,.61.02.95.05.34.03.64.08.9.14v5.11c-.25-.09-.62-.16-1.11-.21-.48-.05-.94-.08-1.37-.08-.87,0-1.65.19-2.35.56-.7.38-1.24.9-1.63,1.56-.39.67-.58,1.45-.58,2.34v12.14h-5.72,0Z"/>
    <path class="st0" d="M178.27,33.81c-1.35,0-2.56-.24-3.63-.72-1.08-.48-1.92-1.19-2.54-2.14s-.92-2.13-.92-3.54c0-1.18.22-2.17.66-2.98.44-.8,1.04-1.44,1.79-1.93s1.62-.85,2.58-1.11c.96-.25,1.97-.43,3.02-.53,1.23-.13,2.23-.24,2.99-.35s1.31-.28,1.66-.52.52-.58.52-1.04v-.09c0-.61-.13-1.13-.38-1.55s-.63-.74-1.14-.96c-.5-.22-1.11-.33-1.82-.33s-1.38.11-1.93.33c-.55.22-.99.52-1.34.89s-.6.78-.76,1.24l-5.25-.86c.37-1.25.98-2.3,1.83-3.17s1.91-1.53,3.18-1.98,2.69-.69,4.28-.69c1.14,0,2.26.14,3.34.41s2.05.7,2.91,1.27c.86.57,1.54,1.32,2.04,2.24.5.92.75,2.03.75,3.31v14.37h-5.42v-2.96h-.19c-.34.66-.8,1.24-1.37,1.75-.57.5-1.26.9-2.07,1.19-.81.29-1.74.44-2.8.44h0ZM179.89,29.78c.9,0,1.7-.18,2.38-.53.68-.36,1.21-.84,1.59-1.45.38-.61.57-1.29.57-2.04v-2.31c-.17.13-.42.24-.76.34s-.73.19-1.14.27c-.42.08-.83.15-1.24.21-.41.06-.77.11-1.09.15-.7.1-1.32.27-1.85.5s-.95.53-1.24.91c-.29.38-.44.86-.44,1.44,0,.55.14,1.01.42,1.38.28.38.66.66,1.14.85s1.04.29,1.66.29h0Z"/>
    <path class="st0" d="M205.6,12.06v4.37h-12.65v-4.37s12.65,0,12.65,0ZM195.88,6.98h5.72v20.17c0,.67.15,1.17.45,1.5s.8.49,1.5.49c.22,0,.52-.03.92-.09.39-.06.69-.11.9-.16l.82,4.29c-.64.19-1.27.32-1.9.4-.63.08-1.23.12-1.8.12-2.14,0-3.77-.52-4.9-1.57-1.13-1.04-1.7-2.54-1.7-4.48V6.98h-.01Z"/>
    <path class="st0" d="M212.18,9.27c-.87,0-1.6-.29-2.21-.86s-.92-1.27-.92-2.08.31-1.51.92-2.08,1.35-.86,2.21-.86,1.61.29,2.22.86c.62.57.93,1.27.93,2.08s-.31,1.51-.93,2.08-1.36.86-2.22.86ZM209.32,33.39V12.06h5.72v21.33h-5.72Z"/>
    <path class="st0" d="M229.45,33.81c-2.14,0-3.99-.46-5.55-1.38-1.56-.92-2.77-2.21-3.62-3.85-.85-1.65-1.27-3.56-1.27-5.75s.42-4.14,1.27-5.79,2.05-2.93,3.62-3.85c1.56-.92,3.42-1.38,5.55-1.38s4,.46,5.56,1.38c1.56.92,2.76,2.21,3.61,3.85s1.27,3.58,1.27,5.79-.42,4.11-1.27,5.75c-.85,1.65-2.05,2.93-3.61,3.85s-3.41,1.38-5.56,1.38ZM229.45,29.31c1.02,0,1.87-.28,2.56-.85s1.2-1.34,1.55-2.33c.34-.99.51-2.1.51-3.33s-.17-2.38-.51-3.36-.86-1.75-1.55-2.31-1.54-.84-2.56-.84-1.87.28-2.55.84c-.68.56-1.19,1.33-1.54,2.31-.34.98-.51,2.1-.51,3.36s.17,2.34.51,3.33.86,1.76,1.54,2.33c.68.57,1.53.85,2.55.85Z"/>
    <path class="st0" d="M249.6,21.04v12.35h-5.72V12.06h5.4l.09,5.32h-.34c.56-1.78,1.41-3.16,2.55-4.13,1.14-.97,2.61-1.46,4.42-1.46,1.48,0,2.76.32,3.86.96,1.1.64,1.95,1.56,2.56,2.77.6,1.2.91,2.64.91,4.3v13.57h-5.72v-12.57c0-1.32-.34-2.36-1.02-3.11s-1.62-1.13-2.83-1.13c-.8,0-1.52.17-2.15.52-.63.35-1.12.86-1.47,1.52s-.52,1.47-.52,2.42h-.02Z"/>
    <path class="st0" d="M279.33,33.39V4.96h10.19c2.19,0,4.01.41,5.48,1.22s2.56,1.92,3.28,3.3c.72,1.39,1.09,2.96,1.09,4.71s-.37,3.33-1.1,4.72c-.73,1.39-1.83,2.49-3.29,3.3s-3.29,1.21-5.5,1.21h-6.96v-3.68h6.54c1.4,0,2.53-.24,3.4-.72s1.5-1.14,1.9-1.98.6-1.79.6-2.84-.2-2.02-.6-2.85-1.04-1.48-1.91-1.96-2.01-.71-3.42-.71h-5.34v24.71h-4.36Z"/>
    <path class="st0" d="M308.27,4.96v28.43h-4.2V4.96s4.2,0,4.2,0Z"/>
    <path class="st0" d="M319.89,33.87c-1.35,0-2.57-.25-3.66-.75s-1.96-1.24-2.59-2.2c-.64-.97-.95-2.15-.95-3.55,0-1.21.23-2.2.7-2.98.46-.78,1.09-1.39,1.89-1.85s1.68-.8,2.65-1.03,1.96-.4,2.97-.52c1.26-.15,2.28-.28,3.07-.37s1.37-.25,1.75-.48.56-.58.56-1.08v-.11c0-.8-.15-1.48-.46-2.02-.31-.55-.76-.97-1.36-1.27-.6-.3-1.36-.45-2.26-.45s-1.73.14-2.39.43-1.21.65-1.62,1.1-.72.91-.92,1.39l-3.95-1.03c.48-1.27,1.18-2.3,2.08-3.07.9-.78,1.94-1.34,3.11-1.7,1.17-.36,2.38-.53,3.62-.53.87,0,1.78.1,2.75.3.97.2,1.88.57,2.73,1.11.85.54,1.55,1.29,2.08,2.25s.8,2.23.8,3.78v14.16h-4.06v-2.92h-.21c-.28.55-.69,1.08-1.24,1.6-.55.52-1.24.95-2.07,1.29-.83.34-1.83.5-2.99.5h-.03ZM320.83,30.49c1.14,0,2.12-.22,2.94-.67s1.44-1.04,1.87-1.77c.43-.74.65-1.52.65-2.35v-2.73c-.15.15-.44.29-.87.41s-.91.23-1.46.32-1.07.17-1.58.24-.93.11-1.26.15c-.79.1-1.51.27-2.17.52-.66.24-1.18.58-1.56,1.03s-.58,1.04-.58,1.77c0,.67.17,1.24.53,1.7.35.46.82.8,1.42,1.03s1.29.34,2.08.34h-.01Z"/>
    <path class="st0" d="M345.24,12.06v3.42h-11.56v-3.42h11.56ZM336.78,6.98h4.2v20.65c0,.85.18,1.48.54,1.88.36.4.96.6,1.78.6.22,0,.5-.03.86-.08.36-.05.66-.1.92-.15l.74,3.36c-.45.15-.92.26-1.43.33-.51.07-1.01.1-1.51.1-1.93,0-3.43-.5-4.5-1.5s-1.6-2.4-1.6-4.21V6.97h0Z"/>
    <path class="st0" d="M358.94,12.06v3.42h-13.01v-3.42h13.01ZM349.97,33.39V9.61c0-1.32.3-2.43.89-3.32.59-.89,1.37-1.56,2.34-2s2.01-.67,3.13-.67c.85,0,1.58.07,2.18.21s1.05.26,1.33.36l-.97,3.4c-.2-.06-.45-.13-.75-.2-.3-.07-.67-.11-1.12-.11-.99,0-1.71.25-2.16.74-.45.5-.67,1.21-.67,2.16v23.2h-4.2,0Z"/>
    <path class="st0" d="M371.11,33.83c-2,0-3.74-.46-5.24-1.37-1.5-.92-2.66-2.2-3.48-3.85-.83-1.65-1.24-3.58-1.24-5.76s.41-4.15,1.24-5.81,1.99-2.95,3.48-3.86c1.49-.92,3.24-1.37,5.24-1.37s3.76.46,5.26,1.37c1.5.92,2.66,2.2,3.48,3.86s1.24,3.6,1.24,5.81-.41,4.11-1.24,5.76-1.99,2.94-3.48,3.85c-1.49.92-3.25,1.37-5.26,1.37ZM371.11,30.28c1.3,0,2.37-.34,3.22-1.02s1.48-1.58,1.89-2.71.62-2.36.62-3.71-.21-2.61-.62-3.75-1.04-2.05-1.89-2.73-1.92-1.02-3.22-1.02-2.35.34-3.19,1.02-1.47,1.59-1.88,2.72-.62,2.38-.62,3.76.21,2.58.62,3.71,1.04,2.03,1.88,2.71,1.9,1.02,3.19,1.02Z"/>
    <path class="st0" d="M385.74,33.39V12.06h4.06v3.43h.23c.39-1.17,1.08-2.09,2.06-2.75s2.09-.99,3.34-.99c.27,0,.57,0,.92.03.34.02.63.05.86.09v4.01c-.15-.05-.45-.1-.88-.15s-.87-.08-1.32-.08c-.97,0-1.84.2-2.61.61-.78.41-1.38.97-1.81,1.69-.43.72-.65,1.55-.65,2.49v12.96h-4.2Z"/>
    <path class="st0" d="M401.35,33.39V12.06h3.99l.11,4.94h-.32c.3-1.21.78-2.2,1.41-2.98.64-.78,1.38-1.36,2.23-1.75s1.74-.58,2.67-.58c1.55,0,2.8.48,3.76,1.44.95.96,1.6,2.3,1.93,4.02h-.53c.28-1.17.76-2.16,1.45-2.98.69-.81,1.52-1.43,2.49-1.85s2.01-.63,3.12-.63c1.26,0,2.4.27,3.43.82,1.02.55,1.83,1.36,2.43,2.44.6,1.08.9,2.43.9,4.04v14.39h-4.2v-13.97c0-1.42-.4-2.46-1.19-3.09s-1.73-.95-2.81-.95c-.88,0-1.63.18-2.27.55-.64.37-1.13.88-1.47,1.54s-.52,1.41-.52,2.26v13.66h-4.14v-14.23c0-1.15-.37-2.06-1.1-2.75s-1.66-1.03-2.79-1.03c-.78,0-1.5.18-2.17.54s-1.2.9-1.6,1.6-.6,1.57-.6,2.6v13.26h-4.2v.02Z"/>
  </g>
</svg>